{"title":"Taylor Swift - Out of The Woods (2015 Pop)","uid":13479151,"size":74499510,"categoryP":"video","categoryS":"music_videos","magnet":"?xt=urn:btih:29238a319724bc565a9768527a73e24b160476f2&amp;dn=Taylor+Swift+-+Out+of+The+Woods+%282015+Pop%29&amp;tr=udp%3A%2F%2Ftracker.leechers-paradise.org%3A6969&amp;tr=udp%3A%2F%2Fzer0day.ch%3A1337&amp;tr=udp%3A%2F%2Fopen.demonii.com%3A1337&amp;tr=udp%3A%2F%2Ftracker.coppersurfer.tk%3A6969&amp;tr=udp%3A%2F%2Fexodus.desync.com%3A6969","seeders":2,"leechers":0,"uploader":"MeRaDil","files":1,"time":1455042547,"description":"TAYLOR SWIFT - OUT OF THE WOODS\r\n\r\n \nhttp://ultraimg.com/images/woods.png\r\n \nhttp://ultraimg.com/images/woods01.png\r\n \nhttp://ultraimg.com/images/woods02.png\r\n\r\n\r\nGeneral\r\nTaylor Swift - Out of The Woods\r\nFormat                                   : MPEG-4\r\nFormat profile                           : Base Media\r\nCodec ID                                 : isom\r\nFile size                                : 71.0 MiB\r\nDuration                                 : 4mn 16s\r\nOverall bit rate                         : 2 322 Kbps\r\nMusicVid name                            : Out Of The Woods\r\nAlbum                                    : 1989\r\nPerformer                                : Taylor Swift\r\nGenre                                    : Pop\r\nContentType                              : Music Video\r\nRecorded date                            : 2015\r\nWriting application                      : Lavf56.32.100 / MeRaDil\r\nCover                                    : Yes\r\nArtist url                               : http://taylorswift.com/\r\nRelease time                             : USA . december 31 . 2015\r\n \nhttp://ultraimg.com/images/woods-taylor.png\r\n\r\nVideo\r\nID                                       : 1\r\nFormat                                   : AVC\r\nFormat/Info                              : Advanced Video Codec\r\nFormat profile                           :   \r\nFormat settings, CABAC                   : Yes\r\nFormat settings, ReFrames                : 3 frames\r\nCodec ID                                 : avc1\r\nCodec ID/Info                            : Advanced Video Coding\r\nDuration                                 : 4mn 16s\r\nBit rate                                 : 2 045 Kbps\r\nWidth                                    : 1 920 pixels\r\nHeight                                   : 1 080 pixels\r\nDisplay aspect ratio                     : 16:9\r\nFrame rate mode                          : Variable\r\nFrame rate                               : 23.976 fps\r\nMinimum frame rate                       : 23.974 fps\r\nMaximum frame rate                       : 23.981 fps\r\nColor space                              : YUV\r\nChroma subsampling                       : 4:2:0\r\nBit depth                                : 8 bits\r\nScan type                                : Progressive\r\nBits/(Pixel*Frame)                       : 0.041\r\nStream size                              : 62.5 MiB (88%)\r\n\r\nAudio\r\nID                                       : 2\r\nFormat                                   : AAC\r\nFormat/Info                              : Advanced Audio Codec\r\nFormat profile                           : LC\r\nCodec ID                                 : 40\r\nDuration                                 : 4mn 16s\r\nBit rate mode                            : Constant\r\nBit rate                                 : 256 Kbps\r\nChannel(s)                               : 2 channels\r\nChannel positions                        : Front: L R\r\nSampling rate                            : 44.1 KHz\r\nCompression mode                         : Lossy\r\nStream size                              : 7.83 MiB (11%)","torrent":{"xt":"urn:btih:29238a319724bc565a9768527a73e24b160476f2","amp;dn":"Taylor+Swift+-+Out+of+The+Woods+%282015+Pop%29","amp;tr":["udp%3A%2F%2Ftracker.leechers-paradise.org%3A6969","udp%3A%2F%2Fzer0day.ch%3A1337","udp%3A%2F%2Fopen.demonii.com%3A1337","udp%3A%2F%2Ftracker.coppersurfer.tk%3A6969","udp%3A%2F%2Fexodus.desync.com%3A6969"],"infoHash":"29238a319724bc565a9768527a73e24b160476f2","infoHashBuffer":{"type":"Buffer","data":[41,35,138,49,151,36,188,86,90,151,104,82,122,115,226,75,22,4,118,242]},"announce":[],"urlList":[]}}